<mxfile host="app.diagrams.net" agent="Mozilla/5.0 (Windows NT 10.0; Win64; x64) AppleWebKit/537.36 (KHTML, like Gecko) Chrome/127.0.0.0 Safari/537.36" version="24.7.5">
  <diagram name="Page-1" id="7uvHXEJBTmTafkmUMUe2">
    <mxGraphModel dx="500" dy="269" grid="1" gridSize="10" guides="1" tooltips="1" connect="1" arrows="1" fold="1" page="1" pageScale="1" pageWidth="827" pageHeight="1169" math="0" shadow="0">
      <root>
        <mxCell id="0" />
        <mxCell id="1" parent="0" />
        <mxCell id="dhJ95FcUzE8B8ggXkX-6-36" style="rounded=0;orthogonalLoop=1;jettySize=auto;html=1;exitX=0.75;exitY=0;exitDx=0;exitDy=0;entryX=0.5;entryY=1;entryDx=0;entryDy=0;endArrow=none;endFill=0;" edge="1" parent="1" source="dhJ95FcUzE8B8ggXkX-6-40" target="dhJ95FcUzE8B8ggXkX-6-43">
          <mxGeometry relative="1" as="geometry" />
        </mxCell>
        <mxCell id="dhJ95FcUzE8B8ggXkX-6-37" style="rounded=0;orthogonalLoop=1;jettySize=auto;html=1;exitX=0;exitY=0;exitDx=0;exitDy=0;entryX=0.5;entryY=1;entryDx=0;entryDy=0;endArrow=none;endFill=0;" edge="1" parent="1" source="dhJ95FcUzE8B8ggXkX-6-40" target="dhJ95FcUzE8B8ggXkX-6-41">
          <mxGeometry relative="1" as="geometry" />
        </mxCell>
        <mxCell id="dhJ95FcUzE8B8ggXkX-6-38" style="rounded=0;orthogonalLoop=1;jettySize=auto;html=1;exitX=0.417;exitY=0.02;exitDx=0;exitDy=0;entryX=0.5;entryY=1;entryDx=0;entryDy=0;endArrow=none;endFill=0;exitPerimeter=0;" edge="1" parent="1" source="dhJ95FcUzE8B8ggXkX-6-40" target="dhJ95FcUzE8B8ggXkX-6-42">
          <mxGeometry relative="1" as="geometry" />
        </mxCell>
        <mxCell id="dhJ95FcUzE8B8ggXkX-6-39" style="rounded=0;orthogonalLoop=1;jettySize=auto;html=1;exitX=1;exitY=0;exitDx=0;exitDy=0;entryX=0;entryY=1;entryDx=0;entryDy=0;endArrow=none;endFill=0;" edge="1" parent="1" source="dhJ95FcUzE8B8ggXkX-6-40" target="dhJ95FcUzE8B8ggXkX-6-44">
          <mxGeometry relative="1" as="geometry" />
        </mxCell>
        <mxCell id="dhJ95FcUzE8B8ggXkX-6-40" value="User" style="rounded=0;whiteSpace=wrap;html=1;" vertex="1" parent="1">
          <mxGeometry x="371.87" y="241.25" width="120" height="40" as="geometry" />
        </mxCell>
        <mxCell id="dhJ95FcUzE8B8ggXkX-6-41" value="&lt;u&gt;Id&lt;/u&gt;" style="ellipse;whiteSpace=wrap;html=1;" vertex="1" parent="1">
          <mxGeometry x="322.5" y="140" width="70" height="30" as="geometry" />
        </mxCell>
        <mxCell id="dhJ95FcUzE8B8ggXkX-6-42" value="Name" style="ellipse;whiteSpace=wrap;html=1;" vertex="1" parent="1">
          <mxGeometry x="380" y="170" width="70" height="35" as="geometry" />
        </mxCell>
        <mxCell id="dhJ95FcUzE8B8ggXkX-6-43" value="HashedPassword" style="ellipse;whiteSpace=wrap;html=1;" vertex="1" parent="1">
          <mxGeometry x="413" y="130" width="105" height="40" as="geometry" />
        </mxCell>
        <mxCell id="dhJ95FcUzE8B8ggXkX-6-44" value="Token" style="ellipse;whiteSpace=wrap;html=1;" vertex="1" parent="1">
          <mxGeometry x="491.8700000000001" y="170" width="70" height="35" as="geometry" />
        </mxCell>
        <mxCell id="dhJ95FcUzE8B8ggXkX-6-50" style="rounded=0;orthogonalLoop=1;jettySize=auto;html=1;exitX=0.5;exitY=0;exitDx=0;exitDy=0;endArrow=none;endFill=0;shape=link;entryX=0.5;entryY=1;entryDx=0;entryDy=0;" edge="1" parent="1" source="dhJ95FcUzE8B8ggXkX-6-54" target="dhJ95FcUzE8B8ggXkX-6-40">
          <mxGeometry relative="1" as="geometry">
            <mxPoint x="450" y="300" as="targetPoint" />
          </mxGeometry>
        </mxCell>
        <mxCell id="dhJ95FcUzE8B8ggXkX-6-51" style="rounded=0;orthogonalLoop=1;jettySize=auto;html=1;exitX=0.5;exitY=1;exitDx=0;exitDy=0;entryX=0.5;entryY=0;entryDx=0;entryDy=0;endArrow=none;endFill=0;" edge="1" parent="1" source="dhJ95FcUzE8B8ggXkX-6-54" target="dhJ95FcUzE8B8ggXkX-6-60">
          <mxGeometry relative="1" as="geometry" />
        </mxCell>
        <mxCell id="dhJ95FcUzE8B8ggXkX-6-52" style="rounded=0;orthogonalLoop=1;jettySize=auto;html=1;exitX=0.5;exitY=1;exitDx=0;exitDy=0;entryX=0.5;entryY=0;entryDx=0;entryDy=0;endArrow=none;endFill=0;" edge="1" parent="1" source="dhJ95FcUzE8B8ggXkX-6-54" target="dhJ95FcUzE8B8ggXkX-6-56">
          <mxGeometry relative="1" as="geometry" />
        </mxCell>
        <mxCell id="dhJ95FcUzE8B8ggXkX-6-53" style="rounded=0;orthogonalLoop=1;jettySize=auto;html=1;exitX=0.5;exitY=1;exitDx=0;exitDy=0;entryX=0.5;entryY=0;entryDx=0;entryDy=0;endArrow=none;endFill=0;" edge="1" parent="1" source="dhJ95FcUzE8B8ggXkX-6-54" target="dhJ95FcUzE8B8ggXkX-6-61">
          <mxGeometry relative="1" as="geometry" />
        </mxCell>
        <mxCell id="dhJ95FcUzE8B8ggXkX-6-54" value="o" style="ellipse;whiteSpace=wrap;html=1;aspect=fixed;" vertex="1" parent="1">
          <mxGeometry x="416.87" y="303" width="30" height="30" as="geometry" />
        </mxCell>
        <mxCell id="dhJ95FcUzE8B8ggXkX-6-56" value="Doctor" style="rounded=0;whiteSpace=wrap;html=1;" vertex="1" parent="1">
          <mxGeometry x="371.87" y="365" width="120" height="40" as="geometry" />
        </mxCell>
        <mxCell id="dhJ95FcUzE8B8ggXkX-6-73" style="rounded=0;orthogonalLoop=1;jettySize=auto;html=1;exitX=0;exitY=0.5;exitDx=0;exitDy=0;entryX=0.5;entryY=1;entryDx=0;entryDy=0;endArrow=none;endFill=0;" edge="1" parent="1" source="dhJ95FcUzE8B8ggXkX-6-60" target="dhJ95FcUzE8B8ggXkX-6-72">
          <mxGeometry relative="1" as="geometry" />
        </mxCell>
        <mxCell id="dhJ95FcUzE8B8ggXkX-6-60" value="Donor" style="rounded=0;whiteSpace=wrap;html=1;" vertex="1" parent="1">
          <mxGeometry x="244.31" y="365" width="120" height="40" as="geometry" />
        </mxCell>
        <mxCell id="dhJ95FcUzE8B8ggXkX-6-61" value="Admin" style="rounded=0;whiteSpace=wrap;html=1;" vertex="1" parent="1">
          <mxGeometry x="500" y="365" width="120" height="40" as="geometry" />
        </mxCell>
        <mxCell id="dhJ95FcUzE8B8ggXkX-6-72" value="isVerified" style="ellipse;whiteSpace=wrap;html=1;" vertex="1" parent="1">
          <mxGeometry x="150" y="311.25" width="70" height="35" as="geometry" />
        </mxCell>
        <mxCell id="dhJ95FcUzE8B8ggXkX-6-75" value="DoB" style="ellipse;whiteSpace=wrap;html=1;" vertex="1" parent="1">
          <mxGeometry x="200" y="281.25" width="59" height="35" as="geometry" />
        </mxCell>
        <mxCell id="dhJ95FcUzE8B8ggXkX-6-76" style="rounded=0;orthogonalLoop=1;jettySize=auto;html=1;exitX=0.5;exitY=1;exitDx=0;exitDy=0;entryX=0.09;entryY=0.021;entryDx=0;entryDy=0;entryPerimeter=0;endArrow=none;endFill=0;" edge="1" parent="1" source="dhJ95FcUzE8B8ggXkX-6-75" target="dhJ95FcUzE8B8ggXkX-6-60">
          <mxGeometry relative="1" as="geometry" />
        </mxCell>
        <mxCell id="dhJ95FcUzE8B8ggXkX-6-78" style="rounded=0;orthogonalLoop=1;jettySize=auto;html=1;exitX=0.5;exitY=1;exitDx=0;exitDy=0;entryX=0.25;entryY=0;entryDx=0;entryDy=0;endArrow=none;endFill=0;" edge="1" parent="1" source="dhJ95FcUzE8B8ggXkX-6-77" target="dhJ95FcUzE8B8ggXkX-6-60">
          <mxGeometry relative="1" as="geometry" />
        </mxCell>
        <mxCell id="dhJ95FcUzE8B8ggXkX-6-77" value="PoB" style="ellipse;whiteSpace=wrap;html=1;" vertex="1" parent="1">
          <mxGeometry x="270" y="276.25" width="52.5" height="35" as="geometry" />
        </mxCell>
      </root>
    </mxGraphModel>
  </diagram>
</mxfile>
